<?xml version="1.0" encoding="UTF-8" standalone="no"?>
<!DOCTYPE svg PUBLIC "-//W3C//DTD SVG 1.1//EN" "http://www.w3.org/Graphics/SVG/1.1/DTD/svg11.dtd">
<svg width="100%" height="100%" viewBox="0 0 150 150" version="1.1" xmlns="http://www.w3.org/2000/svg" xmlns:xlink="http://www.w3.org/1999/xlink" xml:space="preserve" xmlns:serif="http://www.serif.com/" style="fill-rule:evenodd;clip-rule:evenodd;stroke-linejoin:round;stroke-miterlimit:2;">
    <g id="Artboard1" transform="matrix(1,0,0,0.986842,0,0)">
        <rect x="0" y="0" width="150" height="152" style="fill:none;"/>
        <rect x="0" y="0" width="150" height="152" style="fill:white;"/>
        <g transform="matrix(1.048783,0,0,8.292587,-5.703565,-213.289095)">
            <path d="M57.263,37.352C58.694,37.525 59.505,37.766 59.505,38.019C59.505,38.677 59.505,39.977 59.505,40.512C59.505,40.576 59.309,40.636 58.96,40.681C58.61,40.726 58.137,40.751 57.643,40.751C54.104,40.751 46.445,40.751 42.906,40.751C41.878,40.751 41.044,40.644 41.044,40.512C41.044,39.616 41.044,36.457 41.044,35.601C41.044,35.564 41.215,35.531 41.481,35.516C41.746,35.502 42.053,35.509 42.263,35.534C45.317,35.904 53.331,36.875 57.263,37.352ZM43.914,34.117C42.081,33.893 41.044,33.582 41.044,33.258C41.044,32.242 41.044,29.996 41.044,29.26C41.044,29.197 41.24,29.136 41.589,29.091C41.938,29.047 42.412,29.021 42.906,29.021C46.445,29.021 54.104,29.021 57.643,29.021C58.671,29.021 59.505,29.128 59.505,29.26C59.505,29.924 59.505,31.814 59.505,32.902C59.505,33.114 60.162,33.317 61.331,33.467C62.501,33.617 64.087,33.701 65.74,33.701L92.82,33.701C93.595,33.701 94.341,33.739 94.905,33.808C97.56,34.129 105.593,35.103 109.958,35.631C111.808,35.856 112.856,36.168 112.856,36.494C112.856,37.515 112.856,39.772 112.856,40.51C112.856,40.574 112.66,40.634 112.31,40.679C111.961,40.724 111.487,40.749 110.993,40.749C107.454,40.749 99.796,40.749 96.257,40.749C95.228,40.749 94.394,40.642 94.394,40.51C94.394,39.846 94.394,37.955 94.394,36.866C94.394,36.654 93.737,36.451 92.568,36.301C91.399,36.151 89.813,36.067 88.159,36.067L61.094,36.067C60.314,36.067 59.564,36.029 58.999,35.96C56.335,35.634 48.273,34.649 43.914,34.117ZM96.614,32.395C95.197,32.222 94.394,31.982 94.394,31.731L94.394,29.258C94.394,29.126 95.228,29.019 96.257,29.019L110.993,29.019C111.487,29.019 111.961,29.045 112.31,29.089C112.66,29.134 112.856,29.195 112.856,29.258L112.856,34.163C112.856,34.201 112.683,34.234 112.418,34.249C112.152,34.263 111.844,34.256 111.634,34.231C108.573,33.856 100.538,32.875 96.614,32.395Z" style="fill:rgb(38,40,45);"/>
        </g>
    </g>
</svg>
