<?xml version="1.0" encoding="UTF-8" standalone="no"?>
<!DOCTYPE svg PUBLIC "-//W3C//DTD SVG 1.1//EN" "http://www.w3.org/Graphics/SVG/1.1/DTD/svg11.dtd">
<svg width="100%" height="100%" viewBox="0 0 402 97" version="1.1" xmlns="http://www.w3.org/2000/svg" xmlns:xlink="http://www.w3.org/1999/xlink" xml:space="preserve" xmlns:serif="http://www.serif.com/" style="fill-rule:evenodd;clip-rule:evenodd;stroke-linejoin:round;stroke-miterlimit:2;">
    <g transform="matrix(1,0,0,1,-177.544701,-113.996752)">
        <g transform="matrix(5.046667,0,0,2.131579,0,0)">
            <g transform="matrix(1,0,0,1,1.287979,7.766504)">
                <g transform="matrix(1,0,0,0.462963,26.49321,33.048311)">
                    <g transform="matrix(0.207817,0,0,8.292587,-1.130165,-213.289095)">
                        <path d="M57.263,37.352C58.694,37.525 59.505,37.766 59.505,38.019C59.505,38.677 59.505,39.977 59.505,40.512C59.505,40.576 59.309,40.636 58.96,40.681C58.61,40.726 58.137,40.751 57.643,40.751C54.104,40.751 46.445,40.751 42.906,40.751C41.878,40.751 41.044,40.644 41.044,40.512C41.044,39.616 41.044,36.457 41.044,35.601C41.044,35.564 41.215,35.531 41.481,35.516C41.746,35.502 42.053,35.509 42.263,35.534C45.317,35.904 53.331,36.875 57.263,37.352ZM43.914,34.117C42.081,33.893 41.044,33.582 41.044,33.258C41.044,32.242 41.044,29.996 41.044,29.26C41.044,29.197 41.24,29.136 41.589,29.091C41.938,29.047 42.412,29.021 42.906,29.021C46.445,29.021 54.104,29.021 57.643,29.021C58.671,29.021 59.505,29.128 59.505,29.26C59.505,29.924 59.505,31.814 59.505,32.902C59.505,33.114 60.162,33.317 61.331,33.467C62.501,33.617 64.087,33.701 65.74,33.701L92.82,33.701C93.595,33.701 94.341,33.739 94.905,33.808C97.56,34.129 105.593,35.103 109.958,35.631C111.808,35.856 112.856,36.168 112.856,36.494C112.856,37.515 112.856,39.772 112.856,40.51C112.856,40.574 112.66,40.634 112.31,40.679C111.961,40.724 111.487,40.749 110.993,40.749C107.454,40.749 99.796,40.749 96.257,40.749C95.228,40.749 94.394,40.642 94.394,40.51C94.394,39.846 94.394,37.955 94.394,36.866C94.394,36.654 93.737,36.451 92.568,36.301C91.399,36.151 89.813,36.067 88.159,36.067L61.094,36.067C60.314,36.067 59.564,36.029 58.999,35.96C56.335,35.634 48.273,34.649 43.914,34.117ZM96.614,32.395C95.197,32.222 94.394,31.982 94.394,31.731L94.394,29.258C94.394,29.126 95.228,29.019 96.257,29.019L110.993,29.019C111.487,29.019 111.961,29.045 112.31,29.089C112.66,29.134 112.856,29.195 112.856,29.258L112.856,34.163C112.856,34.201 112.683,34.234 112.418,34.249C112.152,34.263 111.844,34.256 111.634,34.231C108.573,33.856 100.538,32.875 96.614,32.395Z" style="fill:rgb(38,40,45);"/>
                    </g>
                    <g transform="matrix(0.223588,0,0,1.143419,-2.677095,-43.143565)">
                        <path d="M166.617,104.118C164.777,106.116 162.717,107.569 160.435,108.476C158.661,109.175 156.785,109.524 154.807,109.524C152.277,109.524 150.263,108.833 148.765,107.451C147.267,106.07 146.358,104.027 146.038,101.322C144.351,103.707 142.577,105.568 140.716,106.906C138.331,108.651 135.67,109.524 132.732,109.524C129.329,109.524 126.581,108.462 124.487,106.339C122.044,103.838 120.822,100.115 120.822,95.17C120.822,93.076 121.033,90.866 121.455,88.539C121.876,86.212 122.494,83.915 123.309,81.646C125.17,76.527 127.715,72.397 130.943,69.256C134.666,65.679 138.956,63.89 143.813,63.89C146.227,63.89 148.038,64.305 149.245,65.134C150.452,65.963 151.055,67.06 151.055,68.427L151.055,69.082L152.015,64.327L164.885,64.327L158.472,94.691C158.21,95.563 158.079,96.523 158.079,97.57C158.079,100.129 159.301,101.409 161.744,101.409C163.372,101.409 164.856,100.58 166.194,98.922C167.308,97.551 168.226,95.617 168.948,93.122L175.05,64.327L187.92,64.327L186.785,69.867C188.821,68.064 190.479,66.784 191.759,66.028C193.736,64.894 195.671,64.327 197.561,64.327C199.481,64.327 201.022,65.01 202.185,66.377C202.709,66.988 203.102,67.693 203.363,68.493C203.625,69.293 203.756,70.143 203.756,71.045C203.756,71.859 203.625,72.645 203.363,73.401C203.102,74.157 202.709,74.84 202.185,75.451C201.604,76.091 200.898,76.6 200.07,76.978C199.241,77.356 198.317,77.545 197.299,77.545C196.514,77.545 195.889,77.414 195.423,77.153C194.958,76.891 194.594,76.513 194.333,76.018C194.1,75.524 193.94,75.044 193.853,74.579C193.591,73.328 193.329,72.499 193.067,72.092C192.864,71.801 192.544,71.656 192.108,71.656C190.857,71.656 189.796,71.918 188.923,72.441C188.05,72.965 186.945,73.837 185.607,75.059L178.453,109L165.583,109L166.617,104.118ZM138.534,100.885C139.203,100.885 139.909,100.711 140.65,100.362C141.392,100.013 142.112,99.519 142.81,98.879C144.38,97.366 145.427,95.403 145.951,92.989L150.226,72.834C150.226,72.543 150.161,72.201 150.03,71.808C149.899,71.416 149.717,71.045 149.485,70.696C148.787,69.853 147.812,69.431 146.562,69.431C145.369,69.431 144.213,69.823 143.093,70.609C141.974,71.394 140.919,72.485 139.93,73.881C138.185,76.411 136.746,79.712 135.611,83.784C135.088,85.587 134.695,87.369 134.434,89.128C134.172,90.888 134.041,92.48 134.041,93.905C134.041,96.872 134.594,98.879 135.699,99.926C136.077,100.333 136.499,100.595 136.964,100.711C137.429,100.827 137.953,100.885 138.534,100.885ZM269.54,101.692C268.203,103.812 266.736,105.492 265.138,106.731C262.753,108.593 260.005,109.524 256.893,109.524C253.199,109.524 250.465,108.476 248.691,106.382C247.15,104.579 246.379,102.267 246.379,99.446C246.379,98.108 246.546,96.552 246.881,94.778C247.215,93.004 247.717,90.721 248.386,87.928C249.055,85.078 249.556,82.802 249.891,81.101C250.225,79.399 250.393,77.923 250.393,76.673C250.393,73.619 249.317,72.092 247.164,72.092C245.652,72.092 244.256,72.892 242.976,74.491C241.9,75.858 240.969,77.807 240.184,80.337L234.12,109L221.25,109L227.794,78.156C227.969,77.458 228.056,76.716 228.056,75.931C228.056,74.739 227.867,73.823 227.489,73.183C226.994,72.397 226.282,72.005 225.351,72.005C223.664,72.005 222.195,72.819 220.945,74.448C219.84,75.844 218.894,77.807 218.109,80.337L212.045,109L199.175,109L208.642,64.327L221.512,64.327L220.552,68.951C222.297,67.002 224.202,65.621 226.267,64.806C227.896,64.196 229.626,63.89 231.459,63.89C233.96,63.89 235.952,64.472 237.436,65.635C239.093,66.944 240.155,68.922 240.62,71.569C242.54,68.602 244.75,66.508 247.252,65.286C249.026,64.414 250.96,63.978 253.054,63.978C256.05,63.978 258.42,64.763 260.165,66.333C262.026,68.049 262.957,70.623 262.957,74.055C262.957,76.004 262.594,78.694 261.866,82.126C261.576,83.551 261.227,84.991 260.819,86.445C260.092,89.237 259.496,91.811 259.031,94.167C258.798,95.389 258.682,96.377 258.682,97.134C258.682,98.326 258.951,99.249 259.489,99.904C260.027,100.558 260.95,100.885 262.259,100.885C264.033,100.885 265.531,100.158 266.753,98.704C267.31,98.042 267.894,97.092 268.505,95.855C268.5,95.658 268.498,95.459 268.498,95.258C268.498,93.425 268.687,91.397 269.065,89.172C269.443,86.947 270.025,84.7 270.81,82.431C272.613,77.022 275.187,72.703 278.532,69.474C282.574,65.519 287.388,63.541 292.972,63.541C300.621,63.541 304.446,68.297 304.446,77.807L304.446,77.894C304.62,77.953 304.766,77.982 304.882,77.982L305.406,77.982C307.383,77.982 309.725,77.429 312.429,76.324L312.512,76.289L315.047,64.327L327.917,64.327L326.957,68.951C328.702,67.002 330.578,65.635 332.585,64.85C334.068,64.268 335.668,63.978 337.384,63.978C340.409,63.978 342.793,64.763 344.539,66.333C346.4,68.049 347.331,70.623 347.331,74.055C347.331,76.12 346.953,78.81 346.196,82.126C345.993,83.086 345.658,84.526 345.193,86.445C344.349,89.673 343.739,92.247 343.361,94.167C343.128,95.389 343.012,96.377 343.012,97.134C343.012,98.326 343.281,99.249 343.819,99.904C344.357,100.558 345.28,100.885 346.589,100.885C348.363,100.885 349.861,100.158 351.082,98.704C352.013,97.599 353.017,95.694 354.093,92.989L360.157,64.327L373.027,64.327L366.613,94.691C366.439,95.418 366.352,96.174 366.352,96.959C366.352,98.093 366.541,98.995 366.919,99.664C367.355,100.478 368.053,100.885 369.013,100.885C370.584,100.885 371.994,100.187 373.245,98.791C374.321,97.599 375.237,95.854 375.993,93.556L382.232,64.327L395.102,64.327L386.245,105.772C389.067,104.841 391.321,103.445 393.007,101.584C394.84,99.577 396.338,96.712 397.501,92.989L401.253,92.989C399.653,98.282 397.268,102.369 394.098,105.248C391.771,107.342 388.892,108.825 385.46,109.698L384.108,116.155C382.973,121.855 380.705,125.985 377.302,128.545C374.83,130.406 371.732,131.337 368.01,131.337C366.613,131.337 365.312,131.155 364.105,130.791C362.898,130.428 361.858,129.883 360.986,129.155C360.055,128.428 359.328,127.519 358.804,126.429C358.281,125.338 358.019,124.08 358.019,122.655C358.019,119.281 359.604,116.387 362.774,113.973C365.159,112.199 368.431,110.658 372.59,109.349L373.681,104.55C371.936,106.47 370.045,107.822 368.01,108.607C366.439,109.218 364.752,109.524 362.949,109.524C360.099,109.524 357.845,108.68 356.187,106.993C354.918,105.725 354.082,104.058 353.678,101.992C352.393,103.971 350.99,105.551 349.468,106.731C347.083,108.593 344.335,109.524 341.223,109.524C337.529,109.524 334.795,108.476 333.021,106.382C331.48,104.579 330.709,102.267 330.709,99.446C330.709,98.108 330.876,96.552 331.211,94.778C331.545,93.004 332.047,90.721 332.716,87.928C333.385,85.078 333.886,82.802 334.221,81.101C334.555,79.399 334.723,77.923 334.723,76.673C334.723,73.619 333.646,72.092 331.494,72.092C329.982,72.092 328.586,72.892 327.306,74.491C326.23,75.858 325.299,77.807 324.514,80.337L318.45,109L305.58,109L311.637,80.418C309.324,81.342 306.825,82.028 304.14,82.475C303.791,86.518 303.006,90.204 301.785,93.534C300.563,96.865 298.993,99.722 297.073,102.107C295.182,104.434 293.016,106.222 290.573,107.473C288.13,108.724 285.541,109.349 282.807,109.349C278.386,109.349 274.969,108.273 272.555,106.121C271.221,104.945 270.216,103.468 269.54,101.692ZM365.959,124.357C366.861,124.357 367.82,123.702 368.838,122.393C369.827,121.114 370.598,119.121 371.151,116.416L371.674,113.843C368.969,114.86 366.948,115.893 365.61,116.94C363.836,118.278 362.949,119.776 362.949,121.434C362.949,122.219 363.196,122.873 363.691,123.397C364.243,124.037 364.999,124.357 365.959,124.357ZM286.384,101.322C287.431,101.322 288.5,100.849 289.591,99.904C290.682,98.959 291.707,97.643 292.667,95.956C293.626,94.269 294.455,92.291 295.153,90.022C295.851,87.754 296.375,85.325 296.724,82.737C295.851,82.504 295.233,82.068 294.87,81.428C294.506,80.788 294.324,79.974 294.324,78.985C294.324,77.763 294.572,76.746 295.066,75.931C295.561,75.117 296.244,74.521 297.117,74.142C297,72.252 296.695,70.9 296.2,70.085C295.939,69.678 295.611,69.387 295.219,69.213C294.826,69.038 294.324,68.951 293.714,68.951C291.707,68.951 289.744,70.463 287.824,73.488C286.05,76.222 284.596,79.596 283.461,83.609C282.356,87.536 281.804,91.026 281.804,94.08C281.804,95.563 281.884,96.77 282.044,97.701C282.204,98.631 282.473,99.359 282.851,99.882C283.2,100.406 283.651,100.776 284.203,100.995C284.756,101.213 285.483,101.322 286.384,101.322Z" style="fill:rgb(38,40,45);"/>
                    </g>
                </g>
                <g transform="matrix(0.130447,0,0,0.308843,16.599076,8.865167)">
                    <path d="M283.28,243.379L283.28,261L274.568,261L274.568,218.619L283.28,218.619L283.28,236.109L314.395,236.109L314.395,218.619L323.107,218.619L323.107,261L314.395,261L314.395,243.379L283.28,243.379ZM346.154,251.764L341.972,261L332.539,261L352.452,218.619L361.885,218.619L381.995,261L372.497,261L368.283,251.764L346.154,251.764ZM364.965,244.493L357.177,227.423L349.447,244.493L364.965,244.493ZM425.815,242.511C427.252,242.637 428.519,242.829 429.616,243.085C431.581,243.543 433.055,244.373 434.038,245.574C435.02,246.775 435.511,248.554 435.511,250.912L435.511,261L426.799,261L426.799,251.502C426.799,249.886 426.516,248.631 425.948,247.735C425.38,246.84 424.365,246.218 422.902,245.869C421.439,245.519 419.332,245.345 416.581,245.345L400.139,245.345L400.139,261L391.427,261L391.427,218.619L420.183,218.619C423.459,218.619 426.308,219.067 428.732,219.962C431.155,220.857 433.044,222.254 434.398,224.154C435.752,226.054 436.428,228.488 436.428,231.458C436.428,233.467 436.079,235.17 435.38,236.567C434.682,237.964 433.71,239.1 432.465,239.973C431.221,240.847 429.791,241.513 428.175,241.971C427.413,242.187 426.626,242.367 425.815,242.511ZM400.139,238.532L420.183,238.532C422.629,238.532 424.496,237.943 425.784,236.764C427.072,235.584 427.716,233.991 427.716,231.982C427.716,230.06 427.072,228.597 425.784,227.593C424.496,226.589 422.629,226.086 420.183,226.086L400.139,226.086L400.139,238.532ZM457.521,230.216L457.521,261L448.809,261L448.809,218.619L457.521,218.619L489.028,249.644L489.028,218.619L497.74,218.619L497.74,261L489.028,261L457.521,230.216ZM519.815,243.314L519.815,253.729L552.501,253.729L552.501,261L511.103,261L511.103,218.619L552.436,218.619L552.436,225.89L519.815,225.89L519.815,236.436L546.541,236.436L546.541,243.314L519.815,243.314ZM561.934,246.72L570.777,246.72C570.952,248.205 571.639,249.548 572.84,250.749C574.041,251.95 575.624,252.888 577.589,253.565C579.555,254.242 581.76,254.581 584.205,254.581C586.432,254.581 588.267,254.34 589.708,253.86C591.149,253.38 592.219,252.703 592.917,251.829C593.616,250.956 593.965,249.908 593.965,248.685C593.965,247.506 593.529,246.6 592.655,245.967C591.782,245.334 590.406,244.81 588.529,244.395C586.651,243.98 584.183,243.554 581.127,243.117C578.725,242.768 576.454,242.277 574.314,241.644C572.174,241.01 570.286,240.192 568.648,239.187C567.011,238.183 565.722,236.949 564.783,235.486C563.845,234.023 563.375,232.287 563.375,230.279C563.375,227.79 564.085,225.606 565.504,223.728C566.923,221.85 569.03,220.388 571.825,219.34C574.62,218.291 578.048,217.767 582.109,217.767C588.223,217.767 592.928,219.067 596.225,221.665C599.522,224.263 601.127,227.833 601.04,232.375L592.524,232.375C592.35,229.798 591.269,227.942 589.282,226.807C587.295,225.672 584.795,225.104 581.782,225.104C578.987,225.104 576.683,225.519 574.871,226.348C573.059,227.178 572.153,228.597 572.153,230.606C572.153,231.392 572.371,232.08 572.808,232.67C573.244,233.259 573.987,233.772 575.035,234.209C576.083,234.646 577.502,235.06 579.293,235.453C581.083,235.846 583.31,236.24 585.974,236.633C588.463,236.982 590.723,237.451 592.754,238.041C594.784,238.63 596.531,239.395 597.994,240.334C599.457,241.272 600.581,242.462 601.367,243.903C602.153,245.345 602.546,247.113 602.546,249.209C602.546,251.786 601.88,254.024 600.549,255.923C599.217,257.823 597.164,259.297 594.391,260.345C591.618,261.393 588.026,261.917 583.616,261.917C580.472,261.917 577.699,261.579 575.297,260.902C572.895,260.225 570.821,259.319 569.074,258.183C567.327,257.048 565.908,255.803 564.816,254.45C563.724,253.096 562.949,251.742 562.491,250.388C562.032,249.035 561.847,247.812 561.934,246.72ZM610.669,246.72L619.512,246.72C619.687,248.205 620.374,249.548 621.575,250.749C622.776,251.95 624.359,252.888 626.324,253.565C628.289,254.242 630.495,254.581 632.94,254.581C635.167,254.581 637.001,254.34 638.443,253.86C639.884,253.38 640.954,252.703 641.652,251.829C642.351,250.956 642.7,249.908 642.7,248.685C642.7,247.506 642.264,246.6 641.39,245.967C640.517,245.334 639.141,244.81 637.263,244.395C635.386,243.98 632.918,243.554 629.862,243.117C627.46,242.768 625.189,242.277 623.049,241.644C620.909,241.01 619.021,240.192 617.383,239.187C615.745,238.183 614.457,236.949 613.518,235.486C612.579,234.023 612.11,232.287 612.11,230.279C612.11,227.79 612.82,225.606 614.239,223.728C615.658,221.85 617.765,220.388 620.56,219.34C623.355,218.291 626.783,217.767 630.844,217.767C636.958,217.767 641.663,219.067 644.96,221.665C648.257,224.263 649.862,227.833 649.775,232.375L641.259,232.375C641.085,229.798 640.004,227.942 638.017,226.807C636.03,225.672 633.53,225.104 630.517,225.104C627.722,225.104 625.418,225.519 623.606,226.348C621.794,227.178 620.887,228.597 620.887,230.606C620.887,231.392 621.106,232.08 621.543,232.67C621.979,233.259 622.722,233.772 623.77,234.209C624.818,234.646 626.237,235.06 628.027,235.453C629.818,235.846 632.045,236.24 634.709,236.633C637.198,236.982 639.458,237.451 641.488,238.041C643.519,238.63 645.266,239.395 646.729,240.334C648.192,241.272 649.316,242.462 650.102,243.903C650.888,245.345 651.281,247.113 651.281,249.209C651.281,251.786 650.615,254.024 649.283,255.923C647.952,257.823 645.899,259.297 643.126,260.345C640.353,261.393 636.761,261.917 632.351,261.917C629.206,261.917 626.433,261.579 624.032,260.902C621.63,260.225 619.556,259.319 617.809,258.183C616.062,257.048 614.643,255.803 613.551,254.45C612.459,253.096 611.684,251.742 611.226,250.388C610.767,249.035 610.582,247.812 610.669,246.72Z" style="fill:rgb(38,40,45);"/>
                </g>
            </g>
        </g>
    </g>
</svg>
